<svg xmlns="http://www.w3.org/2000/svg" viewBox="0 0 17.26 11.9"><defs><style>.cls-1{fill:#000001;}.cls-2{fill:#1a1a1b;}</style></defs><title>gun</title><g id="Layer_2" data-name="Layer 2"><g id="Layer_1-2" data-name="Layer 1"><g id="Layer_2-2" data-name="Layer 2"><g id="Free_Guns_Vector_Pack" data-name="Free Guns Vector Pack"><path class="cls-1" d="M.12.7H.43A.12.12,0,0,0,.54.62l0-.13L.65.32A.12.12,0,0,1,.8.25.12.12,0,0,1,.87.32L.93.49,1,.62A.11.11,0,0,0,1.09.7h13.3a.12.12,0,0,0,.12-.12V.12A.12.12,0,0,1,14.63,0h.26A.12.12,0,0,1,15,.12V.58a.11.11,0,0,0,.11.12h1a.12.12,0,0,1,.12.12v1.5a.12.12,0,0,0,.12.12h.19a.12.12,0,0,1,.12.12h0v.13a.12.12,0,0,1-.12.12H11.83a.12.12,0,0,1-.12-.12V2.6a.12.12,0,0,0-.12-.12H.65a.37.37,0,0,0-.34.24.12.12,0,0,1-.11.09H.12A.12.12,0,0,1,0,2.69V.82A.12.12,0,0,1,.12.7Z"/><path class="cls-2" d="M.65,2.48H11.59a.12.12,0,0,1,.12.12v.09a.12.12,0,0,0,.12.12h4.3a.12.12,0,0,1,.12.12v.21a.34.34,0,0,1-.17.3,2.27,2.27,0,0,0-.8,3.1,2.45,2.45,0,0,0,.46.55l.07,0a2.49,2.49,0,0,1,.43.29h0a2.73,2.73,0,0,1,.73,3.3.3.3,0,0,1-.23.19l-3.84,1h-.06a.35.35,0,0,1-.33-.24L10.33,5.72a.11.11,0,0,0-.15-.07.07.07,0,0,0-.06,0l-.59,1A.59.59,0,0,1,9,7H5.88a.6.6,0,0,1-.6-.59V4.69a.36.36,0,0,0-.35-.36H.65A.36.36,0,0,1,.29,4V2.83A.36.36,0,0,1,.65,2.48ZM9.18,4.43h0s0,0,0,.05A1.56,1.56,0,0,1,7.8,5.71a.12.12,0,0,1-.13-.11.09.09,0,0,1,0-.11,1.6,1.6,0,0,0,.56-.65.37.37,0,0,0-.18-.48.4.4,0,0,0-.15,0H6.35A.36.36,0,0,0,6,4.69V5.81a.59.59,0,0,0,.59.6h2a.59.59,0,0,0,.51-.3l.72-1.24a.36.36,0,0,0-.13-.49.41.41,0,0,0-.18,0H9.3A.12.12,0,0,0,9.18,4.43Z"/><path class="cls-1" d="M13.4,3.59H15l0,.28a.28.28,0,0,1-.09.26,1.88,1.88,0,0,0-.64,1.66A2.33,2.33,0,0,0,15,7.24a.1.1,0,0,0,0,0,2,2,0,0,1,.33.25h0a2.78,2.78,0,0,1,.87,1.8,2.64,2.64,0,0,1-.11,1,.19.19,0,0,1-.15.16l-2.63.83h0a.28.28,0,0,1-.26-.2L11,6a.45.45,0,0,1,0-.11h0v0l.76-2.28Z"/><rect class="cls-2" x="0.68" y="1.5" width="11.01" height="0.32" rx="0.12" ry="0.12"/><path class="cls-1" d="M1.67,3.14h9a.11.11,0,0,1,.1.12v.08a.11.11,0,0,1-.1.12h-9a.11.11,0,0,1-.1-.12V3.26A.11.11,0,0,1,1.67,3.14Z"/></g></g></g></g></svg>